<?xml version="1.0" encoding="utf-8"?>
<!DOCTYPE svg PUBLIC "-//W3C//DTD SVG 1.1//EN" "http://www.w3.org/Graphics/SVG/1.1/DTD/svg11.dtd">
<svg version="1.1" xmlns="http://www.w3.org/2000/svg" xmlns:xlink="http://www.w3.org/1999/xlink"
  x="0px" y="0px" viewBox="0 0 600 600" enable-background="new 0 0 600 600" xml:space="preserve">
  <path id="segment1" style="fill:#909090;fill-opacity:0.5"
    d="m 322.63375,25.925926 0.41152,28.395061 c 16.07612,1.047333 28.51727,4.214639 39.91769,7.407408 l 6.58437,-27.983539 c -23.96178,-6.028541 -34.53113,-6.518114 -46.91358,-7.81893 z" />
  <path id="segment2" style="fill:#959595;fill-opacity:0.5"
    d="M 387.65432,39.09465 381.893,67.078189 c 16.16233,5.952674 29.20478,12.573893 41.56379,19.341564 L 436.62551,60.90535 C 415.9984,49.650507 400.91911,43.532534 387.65432,39.09465 z" />
  <path id="segment3" style="fill:#989898;fill-opacity:0.5"
    d="M 453.49794,71.193415 439.9177,96.707819 c 13.06899,9.178201 23.68674,18.531491 32.92181,27.983541 L 493.41564,103.7037 C 480.2623,90.27334 466.92485,79.972927 453.49794,71.193415 z" />
  <path id="segment4" style="fill:#9c9c9c;fill-opacity:0.5"
    d="m 485.59671,139.16954 20.96269,-21.74009 c 12.13292,13.51169 22.74449,27.5305 30.76863,42.41179 l -26.05782,14.73073 c -7.27679,-13.72237 -16.21626,-24.95073 -25.6735,-35.40243 z" />
  <path id="segment5" style="fill:#a0a0a0;fill-opacity:0.5"
    d="m 519.99993,191.44941 26.48013,-15.42249 c 8.21765,15.64469 15.16759,32.89529 20.36933,52.37828 l -29.82652,6.83828 c -4.23261,-15.7776 -9.77372,-30.48461 -17.02294,-43.79407 z" />
  <path id="segment6" style="fill:#a4a4a4;fill-opacity:0.5"
    d="m 541.24223,253.43038 29.68102,-7.12927 c 2.89424,13.94188 4.3595,27.31216 4.51036,40.15669 l -31.13598,0.29099 c 0.18583,-10.83851 -0.7724,-21.93127 -3.0554,-33.31841 z" />

  <path id="segment7" style="fill:#a8a8a8;fill-opacity:0.5"
    d="m 544.87961,305.51767 30.69949,-0.1455 c 0.64357,11.67503 -0.53875,25.17595 -2.9099,39.8657 l -30.26301,-7.56576 c 1.57707,-9.96555 2.54,-20.54524 2.47342,-32.15444 z" />
  <path id="segment8" style="fill:#adadad;fill-opacity:0.5"
    d="m 538.18683,356.2955 30.69949,7.27476 c -3.8492,19.24263 -10.70141,37.07208 -19.20537,54.12423 l -27.06211,-16.44096 c 6.49532,-13.98905 11.89909,-28.74964 15.56799,-44.95803 z" />
  <path id="segment9" style="fill:#b2b2b2;fill-opacity:0.5"
    d="m 514.47111,418.13097 27.06211,15.85898 c -8.09152,14.29579 -17.44927,28.84482 -30.99048,44.23055 l -22.40627,-22.40627 c 9.88673,-12.00683 18.64265,-24.57906 26.33464,-37.68326 z" />
  <path id="segment10" style="fill:#b8b8b8;fill-opacity:0.5"
    d="m 476.06037,469.49079 22.26077,22.26076 c -12.3162,12.99886 -26.75031,24.85732 -42.6301,35.93732 l -15.85898,-27.49859 c 13.28339,-9.3277 25.13486,-19.72934 36.22831,-30.69949 z" />
  <path id="segment11" style="fill:#bebebe;fill-opacity:0.5"
    d="m 423.97308,510.22945 15.56799,27.64409 c -16.2074,9.18301 -33.89791,17.13009 -53.39675,23.57023 l -6.83827,-30.11752 c 16.42164,-6.11269 30.98044,-13.34308 44.66703,-21.0968 z" />
  <path id="segment12" style="fill:#c3c3c3;fill-opacity:0.5"
    d="m 322.99939,543.25686 0.43649,30.6995 c 15.82505,-0.9873 30.45417,-3.39867 44.08505,-7.12927 l -6.54728,-30.4085 c -12.52269,2.95641 -25.17723,5.25356 -37.97426,6.83827 z"/>

  <path id="segment13" style="fill:#c9c9c9;fill-opacity:0.5"
    d="m 303.93952,574.97482 0,-30.99048 c -10.50271,0.15569 -21.08742,-0.0986 -31.86345,-1.30946 l -6.83828,30.11751 c 12.04643,1.86633 25.0097,2.51023 38.70173,2.18243 z" />
  <path id="segment14" style="fill:#cecece;fill-opacity:0.5"
    d="m 253.45268,540.20146 -6.54729,29.53553 c -23.64372,-4.89978 -41.94183,-11.70923 -58.78007,-19.05987 l 14.98601,-26.91662 c 14.62818,6.61976 31.05486,12.28736 50.34135,16.44096 z" />
  <path id="segment15" style="fill:#d4d4d4;fill-opacity:0.5"
    d="m 185.94289,516.48574 -15.42249,26.48013 c -17.48552,-9.71627 -34.21071,-21.23518 -50.05036,-35.06435 l 21.5333,-21.53329 c 13.93034,11.61476 28.63803,21.51934 43.93955,30.11751 z" />
  <path id="segment16" style="fill:#dadada;fill-opacity:0.5"
    d="m 127.74481,474.00114 -20.66033,20.80581 C 93.293518,480.43178 80.036301,465.46949 68.964736,448.10299 L 94.4264,433.69896 c 10.49871,15.05476 21.72477,28.26163 33.31841,40.30218 z" />
  <path id="segment17" style="fill:#e1e1e1;fill-opacity:0.5"
    d="M 84.67822,416.82151 59.653041,431.37104 C 48.969101,412.26939 41.088833,391.84837 35.064349,370.55403 l 28.080578,-6.25629 c 5.022683,17.50792 11.852129,35.01585 21.533293,52.52377 z" />
  <path id="segment18" style="fill:#e6e6e6;fill-opacity:0.5"
    d="m 26.334635,305.22668 28.226073,0.14549 c 0.737116,14.39928 1.948824,27.96803 3.782876,40.44768 l -27.498597,6.25629 C 28.27334,336.93441 26.44619,321.46179 26.334635,305.22668 z" />

  <path id="segment19" style="fill:#eaeaea;fill-opacity:0.5"
    d="m 54.560708,285.43933 -28.080577,-0.1455 c 1.054513,-14.80643 2.222423,-29.65822 5.965304,-45.54 l 27.207606,6.1108 c -2.398475,14.0328 -4.065461,27.18782 -5.092333,39.5747 z" />
  <path id="segment20" style="fill:#efefef;fill-opacity:0.5"
    d="m 64.890869,227.24124 -27.353102,-6.2563 c 6.223734,-20.47316 14.702937,-40.09846 25.316169,-58.92556 l 24.443198,14.11304 c -8.79508,16.29949 -16.620093,33.12811 -22.406265,51.06882 z" />
  <path id="segment21" style="fill:#f4f4f4;fill-opacity:0.5"
    d="M 97.481799,159.58596 73.475087,145.32743 c 11.754569,-16.00404 24.178167,-31.08816 38.119753,-44.08505 l 19.20537,19.35086 c -11.95753,12.03976 -23.53364,24.50861 -33.318411,38.99272 z" />
  <path id="segment22" style="fill:#f8f8f8;fill-opacity:0.5"
    d="m 126.14436,88.293302 19.35086,19.496358 C 158.99841,97.377981 172.42193,87.842747 185.6519,80.43656 L 172.55733,56.866334 c -16.61699,8.756653 -31.98986,19.379497 -46.41297,31.426968 z" />
  <path id="segment23" style="fill:#fbfbfb;fill-opacity:0.5"
    d="M 190.74424,48.573106 204.1298,71.852342 C 221.13842,65.21658 235.9845,60.54472 250.83376,57.448314 l -6.69278,-27.935081 c -9.43144,0.774525 -46.32386,13.956173 -53.39674,19.059873 z" />
  <path id="segment24" style="fill:#ffffff;fill-opacity:0.5"
    d="m 303.91977,24.05234 0.29099,29.68102 c -11.71115,-0.30615 -23.60099,-0.1656 -36.08282,1.45495 l -6.1108,-29.09904 c 12.25109,-1.19391 25.78207,-2.00386 41.90263,-2.03693 z" />
</svg>
